<?xml version="1.0" encoding="iso-8859-1"?>
<!-- Uploaded to: SVG Repo, www.svgrepo.com, Generator: SVG Repo Mixer Tools -->
<!DOCTYPE svg PUBLIC "-//W3C//DTD SVG 1.1//EN" "http://www.w3.org/Graphics/SVG/1.1/DTD/svg11.dtd">
<svg fill="#000000" version="1.1" id="Capa_1" xmlns="http://www.w3.org/2000/svg" xmlns:xlink="http://www.w3.org/1999/xlink" 
	 width="800px" height="800px" viewBox="0 0 69.458 69.458"
	 xml:space="preserve">
<g>
	<g id="Layer_8">
		<path d="M14.145,5.795v0.849C6.266,7.14,0,13.689,0,21.693v8.877c0,8.004,6.266,14.553,14.145,15.049v0.283
			c0,9.811,7.95,17.76,17.758,17.76H51.7c9.807,0,17.758-7.949,17.758-17.76V5.795H14.145z M14.145,40.291
			c-4.941-0.479-8.82-4.653-8.82-9.722v-8.877c0-5.07,3.879-9.241,8.82-9.721V40.291z M36.898,55.083
			c-16.548,0-16.736-15.088-16.736-15.24v-23.6c0-1.029,0.835-1.86,1.856-1.86c1.031,0,1.861,0.831,1.861,1.86v23.599
			c0.011,1.171,0.454,11.519,13.02,11.519c1.027,0,1.859,0.838,1.859,1.861C38.758,54.25,37.926,55.083,36.898,55.083z"/>
	</g>
</g>
</svg>