<?xml version="1.0" standalone="no"?>
<!DOCTYPE svg PUBLIC "-//W3C//DTD SVG 20010904//EN"
 "http://www.w3.org/TR/2001/REC-SVG-20010904/DTD/svg10.dtd">
<svg version="1.0" xmlns="http://www.w3.org/2000/svg"
 width="512.000000pt" height="512.000000pt" viewBox="0 0 512.000000 512.000000"
 preserveAspectRatio="xMidYMid meet">

<g transform="translate(0.000000,512.000000) scale(0.100000,-0.100000)"
fill="#000000" stroke="none">
<path d="M2475 4913 c-821 -26 -1577 -495 -1984 -1230 -134 -244 -227 -531
-267 -828 -19 -143 -19 -447 0 -590 70 -523 286 -968 651 -1344 381 -392 873
-636 1414 -701 121 -14 421 -14 542 0 518 62 987 286 1363 650 396 385 641
876 706 1419 14 121 14 421 0 542 -90 753 -542 1425 -1205 1792 -366 202 -792
303 -1220 290z m415 -228 c759 -119 1393 -629 1674 -1346 100 -257 140 -476
140 -779 0 -237 -12 -337 -64 -543 -188 -740 -789 -1343 -1532 -1536 -973
-252 -1987 195 -2452 1082 -167 317 -241 623 -241 997 0 300 42 528 141 780
296 748 947 1250 1754 1356 134 17 437 11 580 -11z"/>
<path d="M2460 3225 l0 -565 -565 0 -565 0 0 -100 0 -100 565 0 565 0 0 -565
0 -565 100 0 100 0 0 565 0 565 565 0 565 0 0 100 0 100 -565 0 -565 0 0 565
0 565 -100 0 -100 0 0 -565z"/>
</g>
</svg>
