<?xml version="1.0" encoding="iso-8859-1"?>
<!-- Uploaded to: SVG Repo, www.svgrepo.com, Generator: SVG Repo Mixer Tools -->
<svg height="800px" width="800px" version="1.1" id="Layer_1" xmlns="http://www.w3.org/2000/svg" xmlns:xlink="http://www.w3.org/1999/xlink" 
	 viewBox="0 0 496.158 496.158" xml:space="preserve">
<path style="fill:#334D5C;" d="M0,248.085C0,111.062,111.07,0.003,248.076,0.003c137.012,0,248.082,111.059,248.082,248.082
	c0,137-111.07,248.07-248.082,248.07C111.07,496.155,0,385.085,0,248.085z"/>
<path style="fill:#EAF3F4;" d="M316.936,150.895c0-53.293-18.498-53.15-18.498-53.15s-9.674-28.082-46.582-28.082
	S205.29,97.745,205.29,97.745s-18.516-0.143-18.516,53.15c0,51.335,0,259.548,0,259.548c3.195,10.096,9.633,16.052,32.746,16.052
	h31.926h0.82h31.926c23.115,0,29.551-5.956,32.744-16.052C316.936,410.443,316.936,202.23,316.936,150.895z"/>
<path style="fill:#85B9C1;" d="M298.438,97.745c0,0-9.674-28.082-46.582-28.082S205.29,97.745,205.29,97.745
	s13.797,8.655,46.566,8.655S298.438,97.745,298.438,97.745z"/>
<path style="fill:#9FCED3;" d="M296.63,93.868c-4.191-7.699-16.469-24.205-44.773-24.205s-40.572,16.505-44.76,24.205
	c4.684,2.246,18.73,7.703,44.76,7.703C277.884,101.571,291.942,96.115,296.63,93.868z"/>
<path style="fill:#E0BF36;" d="M179.222,223.172c0-0.004,0-0.009,0-0.012C179.222,223.163,179.222,223.168,179.222,223.172z"/>
<path style="fill:#85B9C1;" d="M268.817,103.632c0,7.63-7.596,13.814-16.965,13.814c-9.367,0-16.965-6.185-16.965-13.814H268.817z"
	/>
<path style="fill:#97CCCA;" d="M193.433,404.712c2.869,9.064,8.646,14.41,29.395,14.41h28.661h0.734h28.661
	c20.751,0,26.529-5.346,29.396-14.41l-0.277-251.448c0,0-24.127-5.503-58.146,0s-58.146,0-58.146,0L193.433,404.712z"/>
<circle style="fill:#B9EAE7;" cx="216.049" cy="218.139" r="10.154"/>
<path style="fill:#CBEFEB;" d="M207.058,218.136c0-4.965,4.025-8.99,8.99-8.99S207.058,223.1,207.058,218.136z"/>
<path style="fill:#B9EAE7;" d="M252.03,265.63c0,8.809-7.143,15.949-15.953,15.949c-8.807,0-15.951-7.141-15.951-15.949
	c0-8.811,7.145-15.952,15.951-15.952C244.888,249.678,252.03,256.819,252.03,265.63z"/>
<path style="fill:#CBEFEB;" d="M221.954,265.63c0-7.801,6.324-14.124,14.123-14.124C243.874,251.506,221.954,273.429,221.954,265.63
	z"/>
<circle style="fill:#B9EAE7;" cx="281.409" cy="267.159" r="6.992"/>
<path style="fill:#CBEFEB;" d="M275.218,267.155c0-3.42,2.771-6.191,6.189-6.191S275.218,270.573,275.218,267.155z"/>
<circle style="fill:#B9EAE7;" cx="214.989" cy="319.859" r="9.101"/>
<path style="fill:#CBEFEB;" d="M206.936,319.863c0-4.45,3.609-8.057,8.057-8.057C219.442,311.807,206.936,324.312,206.936,319.863z"
	/>
<circle style="fill:#B9EAE7;" cx="282.459" cy="222.409" r="11.735"/>
<path style="fill:#CBEFEB;" d="M272.071,222.408c0-5.738,4.654-10.391,10.391-10.391S272.071,228.145,272.071,222.408z"/>
<circle style="fill:#B9EAE7;" cx="266.959" cy="320.239" r="11.735"/>
<path style="fill:#CBEFEB;" d="M256.571,320.242c0-5.738,4.654-10.391,10.391-10.391S256.571,325.979,256.571,320.242z"/>
<circle style="fill:#B9EAE7;" cx="240.819" cy="184.459" r="6.992"/>
<path style="fill:#CBEFEB;" d="M234.63,184.457c0-3.418,2.773-6.189,6.191-6.189S234.63,187.876,234.63,184.457z"/>
<circle style="fill:#B9EAE7;" cx="281.929" cy="169.169" r="9.101"/>
<path style="fill:#CBEFEB;" d="M273.878,169.172c0-4.45,3.607-8.057,8.057-8.057C286.382,161.115,273.878,173.621,273.878,169.172z"
	/>
<circle style="fill:#B9EAE7;" cx="240.819" cy="385.959" r="6.992"/>
<path style="fill:#CBEFEB;" d="M234.63,385.957c0-3.418,2.773-6.189,6.191-6.189S234.63,389.376,234.63,385.957z"/>
<circle style="fill:#B9EAE7;" cx="281.929" cy="370.669" r="9.101"/>
<path style="fill:#CBEFEB;" d="M273.878,370.672c0-4.45,3.607-8.057,8.057-8.057C286.382,362.615,273.878,375.121,273.878,370.672z"
	/>
</svg>